<svg xmlns="http://www.w3.org/2000/svg" viewBox="0 0 57 54"><defs><style>.cls-1{fill:#dcdcdc;}.cls-2{fill:#fff;}.cls-3{fill:#28e1b9;}</style></defs><g id="Vrstva_5" data-name="Vrstva 5"><path class="cls-1" d="M28.52,31.32l11-19.07a23.38,23.38,0,0,0-11-2.85Z"/></g><g id="Vrstva_7" data-name="Vrstva 7"><circle class="cls-2" cx="28.5" cy="31.32" r="3.1"/><path class="cls-3" d="M28.5,54A22.68,22.68,0,1,1,51.18,31.32,22.7,22.7,0,0,1,28.5,54Zm0-44A21.31,21.31,0,1,0,49.8,31.32,21.33,21.33,0,0,0,28.5,10Z"/><path class="cls-3" d="M28.5,35.15a3.83,3.83,0,1,1,3.83-3.83A3.84,3.84,0,0,1,28.5,35.15Zm0-6.28A2.45,2.45,0,1,0,31,31.32,2.45,2.45,0,0,0,28.5,28.87Z"/><rect class="cls-3" x="18.42" y="45.23" width="3.05" height="1.8" transform="translate(-29.98 40.34) rotate(-60)"/><rect class="cls-3" x="35.53" y="15.6" width="3.05" height="1.8" transform="matrix(0.5, -0.87, 0.87, 0.5, 4.24, 40.34)"/><rect class="cls-3" x="12.16" y="38.97" width="3.05" height="1.8" transform="translate(-18.1 12.18) rotate(-30)"/><rect class="cls-3" x="41.79" y="21.86" width="3.05" height="1.8" transform="translate(-5.58 24.71) rotate(-30)"/><rect class="cls-3" x="9.86" y="30.42" width="3.05" height="1.8"/><rect class="cls-3" x="44.08" y="30.42" width="3.05" height="1.8"/><rect class="cls-3" x="12.78" y="21.24" width="1.8" height="3.05" transform="translate(-12.87 23.23) rotate(-60)"/><rect class="cls-3" x="42.41" y="38.35" width="1.8" height="3.05" transform="translate(-12.87 57.45) rotate(-60)"/><rect class="cls-3" x="19.04" y="14.98" width="1.8" height="3.05" transform="translate(-5.58 12.18) rotate(-30)"/><rect class="cls-3" x="36.15" y="44.61" width="1.8" height="3.05" transform="translate(-18.1 24.71) rotate(-30)"/><rect class="cls-3" x="27.6" y="12.68" width="1.8" height="3.05"/><rect class="cls-3" x="27.6" y="46.9" width="1.8" height="3.05"/><path class="cls-3" d="M34.87,7.35H22.18V0H34.87ZM23.56,6h9.93V1.38H23.56Z"/><polygon class="cls-3" points="48.14 15.96 47.16 14.99 48.99 13.16 46.13 10.3 44.3 12.13 43.33 11.15 46.13 8.35 50.94 13.16 48.14 15.96"/><polygon class="cls-3" points="8.91 15.96 6.11 13.16 10.91 8.35 13.72 11.15 12.75 12.13 10.91 10.3 8.05 13.16 9.88 14.99 8.91 15.96"/><rect class="cls-3" x="27.84" y="6.74" width="1.38" height="2.71"/></g></svg>